<?xml version="1.0" encoding="UTF-8" standalone="no"?>
<!-- Generator: Adobe Illustrator 18.1.1, SVG Export Plug-In . SVG Version: 6.00 Build 0)  -->

<svg
   xmlns:dc="http://purl.org/dc/elements/1.1/"
   xmlns:cc="http://creativecommons.org/ns#"
   xmlns:rdf="http://www.w3.org/1999/02/22-rdf-syntax-ns#"
   xmlns:svg="http://www.w3.org/2000/svg"
   xmlns="http://www.w3.org/2000/svg"
   xmlns:sodipodi="http://sodipodi.sourceforge.net/DTD/sodipodi-0.dtd"
   xmlns:inkscape="http://www.inkscape.org/namespaces/inkscape"
   version="1.1"
   id="Capa_1"
   x="0px"
   y="0px"
   viewBox="0 0 20.633 20.633"
   style="enable-background:new 0 0 20.633 20.633;"
   xml:space="preserve"
   inkscape:version="0.91 r13725"
   sodipodi:docname="arrow_down2.svg"
   inkscape:export-filename="C:\Users\Bambi\AppData\Roaming\Kodi\addons\skin.alaskab\media\icons\svg\edit\arrow_down.png"
   inkscape:export-xdpi="2180.97"
   inkscape:export-ydpi="2180.97"><metadata
     id="metadata71"><rdf:RDF><cc:Work
         rdf:about=""><dc:format>image/svg+xml</dc:format><dc:type
           rdf:resource="http://purl.org/dc/dcmitype/StillImage" /><dc:title></dc:title></cc:Work></rdf:RDF></metadata><defs
     id="defs69" /><sodipodi:namedview
     pagecolor="#ffffff"
     bordercolor="#666666"
     borderopacity="1"
     objecttolerance="10"
     gridtolerance="10"
     guidetolerance="10"
     inkscape:pageopacity="0"
     inkscape:pageshadow="2"
     inkscape:window-width="1680"
     inkscape:window-height="988"
     id="namedview67"
     showgrid="false"
     inkscape:zoom="11.437988"
     inkscape:cx="-1.8797012"
     inkscape:cy="10.3165"
     inkscape:window-x="-8"
     inkscape:window-y="-8"
     inkscape:window-maximized="1"
     inkscape:current-layer="Capa_1" /><g
     id="g3"
     transform="matrix(1,0,0,1.1940434,0,-3.0686512)"
     inkscape:export-xdpi="143.94"
     inkscape:export-ydpi="143.94"
     inkscape:export-filename="c:\Users\Bambi\AppData\Roaming\Kodi\addons\skin.alaskab\media\common\arrow_down.png "><path
       d="M 10.79,15.617 20.438,5.971 C 20.571,5.84 20.633,5.67 20.633,5.498 20.633,5.326 20.571,5.154 20.438,5.025 L 20.426,5.013 C 20.301,4.886 20.131,4.818 19.954,4.818 l -4.682,0 c -0.18,0 -0.348,0.068 -0.473,0.195 L 10.319,9.492 5.839,5.013 C 5.711,4.886 5.54,4.818 5.366,4.818 l -4.682,0 c -0.182,0 -0.349,0.068 -0.475,0.195 L 0.196,5.025 C 0.068,5.148 0,5.322 0,5.498 0,5.674 0.068,5.846 0.196,5.971 l 9.648,9.646 c 0.264,0.263 0.686,0.263 0.946,0 z"
       id="path5"
       inkscape:connector-curvature="0" /><g
       id="g7" /><g
       id="g9" /><g
       id="g11" /><g
       id="g13" /><g
       id="g15" /><g
       id="g17" /><g
       id="g19" /><g
       id="g21" /><g
       id="g23" /><g
       id="g25" /><g
       id="g27" /><g
       id="g29" /><g
       id="g31" /><g
       id="g33" /><g
       id="g35" /></g><g
     id="g37" /><g
     id="g39" /><g
     id="g41" /><g
     id="g43" /><g
     id="g45" /><g
     id="g47" /><g
     id="g49" /><g
     id="g51" /><g
     id="g53" /><g
     id="g55" /><g
     id="g57" /><g
     id="g59" /><g
     id="g61" /><g
     id="g63" /><g
     id="g65" /></svg>