<?xml version="1.0" encoding="iso-8859-1"?>
<!-- Generator: Adobe Illustrator 18.1.1, SVG Export Plug-In . SVG Version: 6.00 Build 0)  -->
<svg version="1.1" id="Capa_1" xmlns="http://www.w3.org/2000/svg" xmlns:xlink="http://www.w3.org/1999/xlink" x="0px" y="0px"
	 viewBox="0 0 28.703 28.703" style="enable-background:new 0 0 28.703 28.703;" xml:space="preserve">
<g>
	<path d="M12.377,14.438c0-3.944,3.199-7.142,7.141-7.142c0.104,0,0.205,0.011,0.305,0.016c0-3.556,0-6.271,0-6.738
		c0-1.274-1.65-0.03-1.65-0.03L7.707,8.355c0,0-0.979,0.1-2.105,0.375v11.338c1.127,0.243,2.105,0.355,2.105,0.355l10.236,7.596
		c0,0,1.879,1.573,1.879-0.051c0-0.49,0-3.042,0-6.402c-0.1,0.004-0.201,0.016-0.305,0.016
		C15.576,21.582,12.377,18.384,12.377,14.438z"/>
	<path d="M2.281,11.019c0,2.116,0,5.821,0,7.302c0,0.568,0.801,1.009,1.785,1.337V9.218C3.082,9.626,2.281,10.207,2.281,11.019z"/>
	<path d="M23.32,11.894l-1.498-1.499c0,0-2.389,2.545-2.543,2.545c-0.156,0-2.547-2.545-2.547-2.545l-1.496,1.499
		c0,0,2.541,2.335,2.541,2.548c0,0.208-2.541,2.544-2.541,2.544l1.496,1.496c0,0,2.373-2.544,2.547-2.544
		c0.172,0,2.543,2.544,2.543,2.544l1.498-1.496c0,0-2.545-2.373-2.545-2.544C20.775,14.267,23.32,11.894,23.32,11.894z"/>
	<path d="M19.279,7.296c-3.943,0-7.145,3.198-7.145,7.142c0,3.946,3.201,7.144,7.145,7.144s7.143-3.197,7.143-7.144
		C26.422,10.494,23.222,7.296,19.279,7.296z M19.279,20.372c-3.275,0-5.934-2.656-5.934-5.934c0-3.276,2.658-5.932,5.934-5.932
		c3.277,0,5.932,2.656,5.932,5.932C25.211,17.716,22.556,20.372,19.279,20.372z"/>
	<g>
	</g>
	<g>
	</g>
	<g>
	</g>
	<g>
	</g>
	<g>
	</g>
	<g>
	</g>
	<g>
	</g>
	<g>
	</g>
	<g>
	</g>
	<g>
	</g>
	<g>
	</g>
	<g>
	</g>
	<g>
	</g>
	<g>
	</g>
	<g>
	</g>
</g>
<g>
</g>
<g>
</g>
<g>
</g>
<g>
</g>
<g>
</g>
<g>
</g>
<g>
</g>
<g>
</g>
<g>
</g>
<g>
</g>
<g>
</g>
<g>
</g>
<g>
</g>
<g>
</g>
<g>
</g>
</svg>
