<?xml version="1.0" encoding="UTF-8" standalone="no"?>
<!-- Generator: Adobe Illustrator 18.1.1, SVG Export Plug-In . SVG Version: 6.00 Build 0)  -->

<svg
   xmlns:dc="http://purl.org/dc/elements/1.1/"
   xmlns:cc="http://creativecommons.org/ns#"
   xmlns:rdf="http://www.w3.org/1999/02/22-rdf-syntax-ns#"
   xmlns:svg="http://www.w3.org/2000/svg"
   xmlns="http://www.w3.org/2000/svg"
   xmlns:sodipodi="http://sodipodi.sourceforge.net/DTD/sodipodi-0.dtd"
   xmlns:inkscape="http://www.inkscape.org/namespaces/inkscape"
   version="1.1"
   id="Capa_1"
   x="0px"
   y="0px"
   viewBox="0 0 39.138 39.138"
   style="enable-background:new 0 0 39.138 39.138;"
   xml:space="preserve"
   inkscape:version="0.91 r13725"
   sodipodi:docname="hard17-1.svg"
   inkscape:export-filename="C:\Users\Bambi\AppData\Roaming\Kodi\addons\skin.alaskab\media\icons\MyIcons\svg\hard17.png"
   inkscape:export-xdpi="1177.3636"
   inkscape:export-ydpi="1177.3636"><metadata
     id="metadata7740"><rdf:RDF><cc:Work
         rdf:about=""><dc:format>image/svg+xml</dc:format><dc:type
           rdf:resource="http://purl.org/dc/dcmitype/StillImage" /><dc:title></dc:title></cc:Work></rdf:RDF></metadata><defs
     id="defs7738" /><sodipodi:namedview
     pagecolor="#ffffff"
     bordercolor="#666666"
     borderopacity="1"
     objecttolerance="10"
     gridtolerance="10"
     guidetolerance="10"
     inkscape:pageopacity="0"
     inkscape:pageshadow="2"
     inkscape:window-width="1680"
     inkscape:window-height="988"
     id="namedview7736"
     showgrid="false"
     inkscape:zoom="10.079718"
     inkscape:cx="0.2849005"
     inkscape:cy="22.272363"
     inkscape:window-x="-8"
     inkscape:window-y="-8"
     inkscape:window-maximized="1"
     inkscape:current-layer="Capa_1"
     inkscape:snap-bbox="true" /><g
     id="g7694"
     transform="translate(0.19841783,-0.09920909)"
     inkscape:export-xdpi="1177.3636"
     inkscape:export-ydpi="1177.3636"><g
       id="g7698"><path
         style="fill:#030104"
         d="m 34.672,28.629 c -3.08,0.023 -6.162,-0.03 -9.243,-0.04 -1.948,-0.006 -3.897,-0.01 -5.845,-0.01 -0.383,0 -0.767,0 -1.149,0 -2.482,0 -4.964,0.029 -7.446,0.037 -2.249,0.008 -4.497,0.016 -6.746,0.023 -1.875,0.004 -3.662,1.475 -4.034,3.267 -0.19,0.915 -0.199,1.881 -0.195,2.822 0.011,2.354 2.058,4.4 4.405,4.402 10.098,0.011 20.195,0.01 30.293,0.003 1.909,-0.002 3.772,-1.419 4.203,-3.284 0.199,-0.861 0.188,-1.779 0.208,-2.672 0.05,-2.338 -1.886,-4.568 -4.451,-4.548 z m -4.573,5.209 c -0.002,-1.202 1.05,-2.274 2.263,-2.239 0.575,0.016 1.168,0.262 1.596,0.682 0.7,0.686 0.674,2.499 -0.025,3.169 -0.424,0.407 -1.004,0.668 -1.577,0.653 -1.268,-0.034 -2.254,-0.997 -2.257,-2.265 z"
         id="path7700"
         inkscape:connector-curvature="0" /><path
         style="fill:#030104"
         d="m 19.978516,-17.261719 c -0.982,-0.002 -1.907907,0.160875 -2.753907,0.671875 -1.179,0.712 -1.882859,1.763422 -2.130859,3.107422 -0.207,1.12 -0.359641,2.250047 -0.556641,3.373047 -0.163,0.932 -0.365203,1.8561094 -0.533203,2.7871094 -0.173,0.96 -0.306234,1.9258125 -0.490234,2.8828125 -0.325,1.691 -0.685719,3.3754062 -1.011719,5.06640622 -0.19,0.99099998 -0.331578,1.99237498 -0.517578,2.98437498 -0.4,2.131 -0.813797,4.259625 -1.216797,6.3906249 -0.036,0.191 -0.06575,0.385125 -0.09375,0.578125 -0.046,0.319 -0.04691,0.58375 -0.0039,0.59375 0.04,0.01 0.06312,0.01581 0.07813,0.0078 0.085,-0.041 0.166094,-0.09258 0.246094,-0.142579 1.144,-0.704 2.353562,-1.165062 3.726562,-1.164062 10.233,0.009 20.465219,0.00691 30.699219,0.00391 0.995,0 1.941219,0.1980628 2.824219,0.6640628 0.217,0.115 0.432109,0.232422 0.662109,0.357422 0.365,0.199 0.652484,0.256906 0.646484,0.128906 -0.005,-0.096 -0.0095,-0.166422 -0.02148,-0.232422 -0.189,-1.062 -0.373219,-2.1216406 -0.574219,-3.1816406 -0.163,-0.858 -0.350578,-1.7142656 -0.517578,-2.5722656 -0.253,-1.302 -0.503187,-2.6042032 -0.742187,-3.9082032 -0.173,-0.94299998 -0.316141,-1.89103122 -0.494141,-2.8320312 -0.33,-1.757 -0.678672,-3.510625 -1.013672,-5.265625 -0.208,-1.092 -0.409469,-2.1843438 -0.605469,-3.2773434 -0.173,-0.976 -0.322906,-1.954688 -0.503906,-2.929688 -0.083,-0.448 -0.151937,-0.916172 -0.335937,-1.326172 -0.84,-1.871 -2.344235,-2.752859 -4.365235,-2.755859 -6.8,-0.01 -13.60039,0.0012 -20.40039,-0.0098 z m 18.5625,3.583985 c 1.080625,0 1.958984,0.880131 1.958984,1.960937 0,1.080548 -0.878359,1.9589845 -1.958984,1.9589845 -0.25308,0 -0.506163,-0.049031 -0.740235,-0.1445313 l -3.228515,3.2265626 c 0.578091,0.8048965 0.919922,1.7910437 0.919922,2.8554687 0,1.4705513 -0.640214,2.83068263 -1.765626,3.76757813 l 1.953126,2.35546877 c 0.18398,-0.056021 0.374558,-0.083984 0.568359,-0.083984 1.080835,0 1.960937,0.8784393 1.960937,1.9589844 0,1.0807554 -0.880102,1.9609375 -1.960937,1.9609375 -1.080521,0 -1.958985,-0.8801821 -1.958985,-1.9609375 0,-0.3163913 0.07695,-0.6255502 0.222657,-0.9042969 L 32.40625,0.734375 c -0.580033,0.23322946 -1.191868,0.3515625 -1.820312,0.3515625 -0.117771,0 -0.238308,-0.00432 -0.361329,-0.013672 l -0.507812,1.4316406 c 0.434959,0.3712047 0.689453,0.9153611 0.689453,1.4902344 0,1.0806492 -0.88026,1.9609375 -1.960938,1.9609375 -1.080678,0 -1.958984,-0.8802883 -1.958984,-1.9609375 0,-1.0180663 0.785053,-1.8601329 1.78125,-1.9511718 L 28.734375,0.72265625 C 27.867711,0.36783095 27.113549,-0.23534447 26.572266,-1.0039062 l -4.199219,2.9902343 c 0.03155,0.1403444 0.04687,0.2830851 0.04687,0.4277344 0,1.0807554 -0.88026,1.9609375 -1.960938,1.9609375 C 19.378254,4.375 18.5,3.4948179 18.5,2.4140625 c 0,-1.0805982 0.878254,-1.95893019 1.958984,-1.95898438 0.368382,0 0.721832,0.10043419 1.03125,0.29296876 l 4.404297,-3.13476568 c -0.142709,-0.4653498 -0.214843,-0.9467172 -0.214843,-1.4335937 0,-1.2148006 0.442678,-2.3672408 1.251953,-3.2695313 l -2,-2.2949218 c -0.192487,0.061748 -0.391456,0.091797 -0.595703,0.091797 -1.080679,1e-7 -1.960938,-0.8782292 -1.960938,-1.9589842 0,-1.080546 0.88026,-1.960938 1.960938,-1.960938 1.080677,0 1.958984,0.880392 1.958984,1.960938 0,0.306103 -0.0721,0.604977 -0.208984,0.876953 l 2.023437,2.3222656 c 0.751571,-0.4414051 1.603126,-0.6738281 2.476563,-0.6738281 1.093647,0 2.105144,0.3595251 2.921874,0.9667969 l 3.21875,-3.2167964 c -0.09562,-0.234014 -0.146484,-0.487217 -0.146484,-0.740235 0,-1.080756 0.880155,-1.960937 1.960938,-1.960937 z m -7.955078,7.2128902 c -1.458879,10e-8 -2.646485,1.1857409 -2.646485,2.6445313 0,1.4587892 1.187606,2.6464844 2.646485,2.6464844 1.458877,0 2.644531,-1.1876952 2.644531,-2.6464844 0,-1.4587904 -1.185705,-2.6445313 -2.644531,-2.6445313 z"
         transform="translate(-10.516167,17.262388)"
         id="path7702"
         inkscape:connector-curvature="0" /></g></g><g
     id="g7706"
     inkscape:export-xdpi="1177.3636"
     inkscape:export-ydpi="1177.3636"
     transform="translate(-10.317749,17.163179)" /><g
     id="g7708"
     inkscape:export-xdpi="1177.3636"
     inkscape:export-ydpi="1177.3636"
     transform="translate(-10.317749,17.163179)" /><g
     id="g7710"
     inkscape:export-xdpi="1177.3636"
     inkscape:export-ydpi="1177.3636"
     transform="translate(-10.317749,17.163179)" /><g
     id="g7712"
     inkscape:export-xdpi="1177.3636"
     inkscape:export-ydpi="1177.3636"
     transform="translate(-10.317749,17.163179)" /><g
     id="g7714"
     inkscape:export-xdpi="1177.3636"
     inkscape:export-ydpi="1177.3636"
     transform="translate(-10.317749,17.163179)" /><g
     id="g7716"
     inkscape:export-xdpi="1177.3636"
     inkscape:export-ydpi="1177.3636"
     transform="translate(-10.317749,17.163179)" /><g
     id="g7718"
     inkscape:export-xdpi="1177.3636"
     inkscape:export-ydpi="1177.3636"
     transform="translate(-10.317749,17.163179)" /><g
     id="g7720"
     inkscape:export-xdpi="1177.3636"
     inkscape:export-ydpi="1177.3636"
     transform="translate(-10.317749,17.163179)" /><g
     id="g7722"
     inkscape:export-xdpi="1177.3636"
     inkscape:export-ydpi="1177.3636"
     transform="translate(-10.317749,17.163179)" /><g
     id="g7724"
     inkscape:export-xdpi="1177.3636"
     inkscape:export-ydpi="1177.3636"
     transform="translate(-10.317749,17.163179)" /><g
     id="g7726"
     inkscape:export-xdpi="1177.3636"
     inkscape:export-ydpi="1177.3636"
     transform="translate(-10.317749,17.163179)" /><g
     id="g7728"
     inkscape:export-xdpi="1177.3636"
     inkscape:export-ydpi="1177.3636"
     transform="translate(-10.317749,17.163179)" /><g
     id="g7730"
     inkscape:export-xdpi="1177.3636"
     inkscape:export-ydpi="1177.3636"
     transform="translate(-10.317749,17.163179)" /><g
     id="g7732"
     inkscape:export-xdpi="1177.3636"
     inkscape:export-ydpi="1177.3636"
     transform="translate(-10.317749,17.163179)" /><g
     id="g7734"
     inkscape:export-xdpi="1177.3636"
     inkscape:export-ydpi="1177.3636"
     transform="translate(-10.317749,17.163179)" /><g
     id="g7755"
     transform="matrix(0.08543435,0,0,0.08543435,-5.2412638,13.05473)"
     inkscape:export-xdpi="1177.3636"
     inkscape:export-ydpi="1177.3636" /><g
     id="g7757"
     transform="matrix(0.08543435,0,0,0.08543435,-5.2412638,13.05473)"
     inkscape:export-xdpi="1177.3636"
     inkscape:export-ydpi="1177.3636" /><g
     id="g7759"
     transform="matrix(0.08543435,0,0,0.08543435,-5.2412638,13.05473)"
     inkscape:export-xdpi="1177.3636"
     inkscape:export-ydpi="1177.3636" /><g
     id="g7761"
     transform="matrix(0.08543435,0,0,0.08543435,-5.2412638,13.05473)"
     inkscape:export-xdpi="1177.3636"
     inkscape:export-ydpi="1177.3636" /><g
     id="g7763"
     transform="matrix(0.08543435,0,0,0.08543435,-5.2412638,13.05473)"
     inkscape:export-xdpi="1177.3636"
     inkscape:export-ydpi="1177.3636" /><g
     id="g7765"
     transform="matrix(0.08543435,0,0,0.08543435,-5.2412638,13.05473)"
     inkscape:export-xdpi="1177.3636"
     inkscape:export-ydpi="1177.3636" /><g
     id="g7767"
     transform="matrix(0.08543435,0,0,0.08543435,-5.2412638,13.05473)"
     inkscape:export-xdpi="1177.3636"
     inkscape:export-ydpi="1177.3636" /><g
     id="g7769"
     transform="matrix(0.08543435,0,0,0.08543435,-5.2412638,13.05473)"
     inkscape:export-xdpi="1177.3636"
     inkscape:export-ydpi="1177.3636" /><g
     id="g7771"
     transform="matrix(0.08543435,0,0,0.08543435,-5.2412638,13.05473)"
     inkscape:export-xdpi="1177.3636"
     inkscape:export-ydpi="1177.3636" /><g
     id="g7773"
     transform="matrix(0.08543435,0,0,0.08543435,-5.2412638,13.05473)"
     inkscape:export-xdpi="1177.3636"
     inkscape:export-ydpi="1177.3636" /><g
     id="g7775"
     transform="matrix(0.08543435,0,0,0.08543435,-5.2412638,13.05473)"
     inkscape:export-xdpi="1177.3636"
     inkscape:export-ydpi="1177.3636" /><g
     id="g7777"
     transform="matrix(0.08543435,0,0,0.08543435,-5.2412638,13.05473)"
     inkscape:export-xdpi="1177.3636"
     inkscape:export-ydpi="1177.3636" /><g
     id="g7779"
     transform="matrix(0.08543435,0,0,0.08543435,-5.2412638,13.05473)"
     inkscape:export-xdpi="1177.3636"
     inkscape:export-ydpi="1177.3636" /><g
     id="g7781"
     transform="matrix(0.08543435,0,0,0.08543435,-5.2412638,13.05473)"
     inkscape:export-xdpi="1177.3636"
     inkscape:export-ydpi="1177.3636" /><g
     id="g7783"
     transform="matrix(0.08543435,0,0,0.08543435,-5.2412638,13.05473)"
     inkscape:export-xdpi="1177.3636"
     inkscape:export-ydpi="1177.3636" /></svg>