<?xml version="1.0" encoding="UTF-8" standalone="no"?>
<!-- Generator: Adobe Illustrator 18.0.0, SVG Export Plug-In . SVG Version: 6.00 Build 0)  -->

<svg
   xmlns:dc="http://purl.org/dc/elements/1.1/"
   xmlns:cc="http://creativecommons.org/ns#"
   xmlns:rdf="http://www.w3.org/1999/02/22-rdf-syntax-ns#"
   xmlns:svg="http://www.w3.org/2000/svg"
   xmlns="http://www.w3.org/2000/svg"
   xmlns:sodipodi="http://sodipodi.sourceforge.net/DTD/sodipodi-0.dtd"
   xmlns:inkscape="http://www.inkscape.org/namespaces/inkscape"
   version="1.1"
   id="Capa_1"
   x="0px"
   y="0px"
   viewBox="0 0 384.156 384.156"
   style="enable-background:new 0 0 384.156 384.156;"
   xml:space="preserve"
   inkscape:version="0.91 r13725"
   sodipodi:docname="settings-live-tv.svg"
   inkscape:export-filename="c:\Users\Bambi\AppData\Roaming\Kodi\addons\skin.alaskab\media\settings\settings-pvr-fg.png"
   inkscape:export-xdpi="29.52"
   inkscape:export-ydpi="29.52"><metadata
     id="metadata39"><rdf:RDF><cc:Work
         rdf:about=""><dc:format>image/svg+xml</dc:format><dc:type
           rdf:resource="http://purl.org/dc/dcmitype/StillImage" /></cc:Work></rdf:RDF></metadata><defs
     id="defs37" /><sodipodi:namedview
     pagecolor="#ffffff"
     bordercolor="#666666"
     borderopacity="1"
     objecttolerance="10"
     gridtolerance="10"
     guidetolerance="10"
     inkscape:pageopacity="0"
     inkscape:pageshadow="2"
     inkscape:window-width="1680"
     inkscape:window-height="988"
     id="namedview35"
     showgrid="false"
     inkscape:zoom="0.61433375"
     inkscape:cx="-34.997263"
     inkscape:cy="192.078"
     inkscape:window-x="-8"
     inkscape:window-y="-8"
     inkscape:window-maximized="1"
     inkscape:current-layer="Capa_1" /><path
     d="M353.576,20.145H30.58C13.719,20.145,0,33.863,0,50.725V265.34c0,16.862,13.719,30.58,30.58,30.58h121.86l-29.271,30.702  c-2.062,2.893-3.17,6.358-3.17,9.91v10.4c0,9.432,7.646,17.078,17.078,17.078h110c9.432,0,17.078-7.646,17.078-17.078v-10.4  c0-3.553-1.108-7.017-3.17-9.91l-29.27-30.702h121.86c16.861,0,30.58-13.718,30.58-30.58V50.725  C384.156,33.863,370.438,20.145,353.576,20.145z M350,261.765H192.094c-0.005,0-0.01-0.001-0.016-0.001  c-0.006,0-0.011,0.001-0.016,0.001H34.156V54.3H350V261.765z"
     id="path3" /><g
     id="g5" /><g
     id="g7" /><g
     id="g9" /><g
     id="g11" /><g
     id="g13" /><g
     id="g15" /><g
     id="g17" /><g
     id="g19" /><g
     id="g21" /><g
     id="g23" /><g
     id="g25" /><g
     id="g27" /><g
     id="g29" /><g
     id="g31" /><g
     id="g33" /><g
     id="g4175"
     transform="matrix(0.88854224,0,0,0.88854224,21.408583,20.64475)"><path
       id="path10"
       d="m 177.03523,92.888574 c 0,-8.925 -6.375,-15.3 -15.3,-15.3 l -93.075,0 c -8.925,0 -15.3,6.375 -15.3,15.3 0,8.924996 6.375,15.299996 15.3,15.299996 l 28.05,0 0,110.924 c 0,10.201 7.65,17.85 17.85,17.85 10.2,0 17.85,-7.648 17.85,-17.85 l 0,-110.924 28.05,0 c 10.2,-1.275 16.575,-7.65 16.575,-15.299996 z"
       inkscape:connector-curvature="0" /><path
       id="path12"
       d="m 312.18523,77.588574 c -7.65,0 -15.301,5.1 -17.851,12.75 l -15.3,54.824996 c -5.1,17.85 -10.2,36.975 -14.025,56.101 l -1.274,0 c -3.825,-19.125 -8.925,-38.25 -14.025,-57.375 l -15.3,-53.549996 c -2.55,-7.65 -10.2,-14.025 -17.85,-14.025 -6.375,0 -11.476,2.55 -15.301,7.65 -3.824,5.1 -5.1,11.475 -2.55,16.574996 l 39.525,123.674 c 2.55,7.65 8.925,12.75 16.575,12.75 l 16.574,0 c 7.65,0 14.025,-5.1 16.575,-12.75 l 42.075,-123.674 c 1.275,-5.099996 1.275,-11.474996 -2.55,-16.574996 -3.823,-3.826 -8.923,-6.376 -15.298,-6.376 z"
       inkscape:connector-curvature="0" /></g></svg>