<?xml version="1.0" encoding="UTF-8" standalone="no"?>
<!-- Generator: Adobe Illustrator 18.1.1, SVG Export Plug-In . SVG Version: 6.00 Build 0)  -->

<svg
   xmlns:dc="http://purl.org/dc/elements/1.1/"
   xmlns:cc="http://creativecommons.org/ns#"
   xmlns:rdf="http://www.w3.org/1999/02/22-rdf-syntax-ns#"
   xmlns:svg="http://www.w3.org/2000/svg"
   xmlns="http://www.w3.org/2000/svg"
   xmlns:sodipodi="http://sodipodi.sourceforge.net/DTD/sodipodi-0.dtd"
   xmlns:inkscape="http://www.inkscape.org/namespaces/inkscape"
   version="1.1"
   id="Capa_1"
   x="0px"
   y="0px"
   viewBox="0 0 15.999 15.999"
   style="enable-background:new 0 0 15.999 15.999;"
   xml:space="preserve"
   inkscape:version="0.91 r13725"
   sodipodi:docname="settings-system-info.svg"
   inkscape:export-filename="c:\Users\Bambi\AppData\Roaming\Kodi\addons\skin.alaskab\media\settings\settings-system-info-fg.png"
   inkscape:export-xdpi="720.04504"
   inkscape:export-ydpi="720.04504"><metadata
     id="metadata45"><rdf:RDF><cc:Work
         rdf:about=""><dc:format>image/svg+xml</dc:format><dc:type
           rdf:resource="http://purl.org/dc/dcmitype/StillImage" /></cc:Work></rdf:RDF></metadata><defs
     id="defs43" /><sodipodi:namedview
     pagecolor="#ffffff"
     bordercolor="#666666"
     borderopacity="1"
     objecttolerance="10"
     gridtolerance="10"
     guidetolerance="10"
     inkscape:pageopacity="0"
     inkscape:pageshadow="2"
     inkscape:window-width="1680"
     inkscape:window-height="988"
     id="namedview41"
     showgrid="false"
     inkscape:zoom="14.750922"
     inkscape:cx="-1.457536"
     inkscape:cy="7.9994998"
     inkscape:window-x="-8"
     inkscape:window-y="-8"
     inkscape:window-maximized="1"
     inkscape:current-layer="Capa_1" /><g
     id="g3"><g
       id="g5"><path
         style="fill:#030104;"
         d="M10.339,14.024C10.333,14.026,9.78,14.21,9.3,14.21c-0.265,0-0.372-0.055-0.406-0.079    c-0.168-0.117-0.48-0.336,0.054-1.4l1-1.994c0.593-1.184,0.681-2.329,0.245-3.225c-0.356-0.733-1.039-1.236-1.92-1.416    C7.956,6.031,7.634,5.999,7.315,5.999c-1.849,0-3.094,1.08-3.146,1.126C3.99,7.283,3.948,7.545,4.067,7.751    c0.12,0.206,0.367,0.3,0.595,0.222c0.005-0.002,0.559-0.187,1.039-0.187c0.263,0,0.369,0.055,0.402,0.078    c0.169,0.118,0.482,0.34-0.051,1.402l-1,1.995c-0.594,1.185-0.681,2.33-0.245,3.225c0.356,0.733,1.038,1.236,1.921,1.416    c0.314,0.063,0.636,0.097,0.954,0.097c1.85,0,3.096-1.08,3.148-1.126c0.179-0.157,0.221-0.42,0.102-0.626    C10.812,14.042,10.563,13.95,10.339,14.024z"
         id="path7" /><circle
         style="fill:#030104;"
         cx="9.5"
         cy="2.5"
         r="2.5"
         id="circle9" /></g></g><g
     id="g11" /><g
     id="g13" /><g
     id="g15" /><g
     id="g17" /><g
     id="g19" /><g
     id="g21" /><g
     id="g23" /><g
     id="g25" /><g
     id="g27" /><g
     id="g29" /><g
     id="g31" /><g
     id="g33" /><g
     id="g35" /><g
     id="g37" /><g
     id="g39" /></svg>