<?xml version="1.0" encoding="UTF-8" standalone="no"?>
<!-- Generator: Adobe Illustrator 16.0.0, SVG Export Plug-In . SVG Version: 6.00 Build 0)  -->

<svg
   xmlns:dc="http://purl.org/dc/elements/1.1/"
   xmlns:cc="http://creativecommons.org/ns#"
   xmlns:rdf="http://www.w3.org/1999/02/22-rdf-syntax-ns#"
   xmlns:svg="http://www.w3.org/2000/svg"
   xmlns="http://www.w3.org/2000/svg"
   xmlns:sodipodi="http://sodipodi.sourceforge.net/DTD/sodipodi-0.dtd"
   xmlns:inkscape="http://www.inkscape.org/namespaces/inkscape"
   version="1.1"
   id="Capa_1"
   x="0px"
   y="0px"
   width="36.129px"
   height="36.129px"
   viewBox="0 0 36.129 36.129"
   style="enable-background:new 0 0 36.129 36.129;"
   xml:space="preserve"
   inkscape:version="0.91 r13725"
   sodipodi:docname="settings-pictures.svg"
   inkscape:export-filename="c:\Users\Bambi\AppData\Roaming\Kodi\addons\skin.alaskab\media\settings\settings-pictures-fg.png "
   inkscape:export-xdpi="313.88"
   inkscape:export-ydpi="313.88"><metadata
     id="metadata41"><rdf:RDF><cc:Work
         rdf:about=""><dc:format>image/svg+xml</dc:format><dc:type
           rdf:resource="http://purl.org/dc/dcmitype/StillImage" /></cc:Work></rdf:RDF></metadata><defs
     id="defs39" /><sodipodi:namedview
     pagecolor="#ffffff"
     bordercolor="#666666"
     borderopacity="1"
     objecttolerance="10"
     gridtolerance="10"
     guidetolerance="10"
     inkscape:pageopacity="0"
     inkscape:pageshadow="2"
     inkscape:window-width="1680"
     inkscape:window-height="988"
     id="namedview37"
     showgrid="false"
     inkscape:zoom="11.313708"
     inkscape:cx="26.118268"
     inkscape:cy="10.677517"
     inkscape:window-x="-8"
     inkscape:window-y="-8"
     inkscape:window-maximized="1"
     inkscape:current-layer="Capa_1" /><g
     id="g3"><path
       d="m 30.32,7.163 -28.509,1.6e-6 C 0.812,7.1630017 0,7.974 0,8.975 L 0,31.15 c 0,0.998 0.812,1.811 1.811,1.811 l 28.509,0 c 1,0 1.812,-0.812 1.812,-1.811 l 0,-22.176 C 32.129,7.972 31.32,7.1629999 30.32,7.163 Z m -1.81,3.621 0,16.323 -4.141,-5.026 c -0.152,-0.185 -0.422,-0.218 -0.615,-0.076 l -4.816,3.517 -8.27,-8.045 c -0.096,-0.094 -0.229,-0.135 -0.358,-0.127 -0.134,0.012 -0.253,0.083 -0.329,0.191 l -6.359,9.099 0,-15.856 z m -10.86,6.789 c 0,-1.623 1.319,-2.943 2.94,-2.943 1.623,0 2.941,1.32 2.941,2.943 0,1.619 -1.318,2.941 -2.941,2.941 -1.621,0 -2.94,-1.323 -2.94,-2.941 z m 17.121,8.823002 -2.639,0 0,-2.267 1.283,0 0,-18.2490004 L 6,5.88 l 0,1.2830016 -2.151,0 0,-2.6390016 c 0,-0.749 0.607,-1.356 1.357,-1.356 l 29.565,0 c 0.75,0 1.357,0.607 1.357,1.356 l 0,20.517 c 10e-4,0.747 -0.607,1.355002 -1.357,1.355002 z"
       id="path5"
       inkscape:connector-curvature="0"
       sodipodi:nodetypes="ssssssscscccccccccccsssssccccscccsssssc"
       inkscape:export-filename="c:\Users\Bambi\AppData\Roaming\Kodi\addons\skin.alaskab\media\settings\settings-pictures-fg.png"
       inkscape:export-xdpi="313.88"
       inkscape:export-ydpi="313.88" /></g><g
     id="g7" /><g
     id="g9" /><g
     id="g11" /><g
     id="g13" /><g
     id="g15" /><g
     id="g17" /><g
     id="g19" /><g
     id="g21" /><g
     id="g23" /><g
     id="g25" /><g
     id="g27" /><g
     id="g29" /><g
     id="g31" /><g
     id="g33" /><g
     id="g35" /></svg>