<?xml version="1.0" encoding="iso-8859-1"?>
<!-- Generator: Adobe Illustrator 18.0.0, SVG Export Plug-In . SVG Version: 6.00 Build 0)  -->
<!DOCTYPE svg PUBLIC "-//W3C//DTD SVG 1.1//EN" "http://www.w3.org/Graphics/SVG/1.1/DTD/svg11.dtd">
<svg version="1.1" id="Capa_1" xmlns="http://www.w3.org/2000/svg" xmlns:xlink="http://www.w3.org/1999/xlink" x="0px" y="0px"
	 viewBox="0 0 363.012 363.012" style="enable-background:new 0 0 363.012 363.012;" xml:space="preserve">
<path d="M355.736,167.765c-0.188-41.721-18.139-80.645-50.597-109.672c-28.601-25.575-65.951-41.056-106.573-44.447
	C196.809,5.837,189.845,0,181.506,0c-8.338,0-15.302,5.837-17.06,13.644c-40.63,3.389-77.989,18.869-106.594,44.449
	C25.224,87.271,7.254,126.456,7.254,168.426c0,5.523,4.477,10,10,10h2.609c2.988,0,5.819-1.336,7.719-3.643
	c8.385-10.18,20.745-16.018,33.914-16.018c12.389,0,24.265,5.276,32.582,14.477c1.896,2.097,4.591,3.294,7.418,3.294
	c2.827,0,5.522-1.197,7.418-3.294c8.317-9.201,20.193-14.477,32.582-14.477c7.991,0,15.763,2.207,22.51,6.234v138.986
	c0,32.547,26.479,59.025,59.025,59.025s59.025-26.478,59.025-59.025c0-9.665-7.835-17.5-17.5-17.5c-9.665,0-17.5,7.835-17.5,17.5
	c0,13.248-10.777,24.025-24.025,24.025c-13.248,0-24.025-10.777-24.025-24.025V164.988c6.742-4.02,14.507-6.223,22.49-6.223
	c12.389,0,24.265,5.276,32.582,14.477c1.896,2.097,4.591,3.294,7.418,3.294c2.827,0,5.522-1.197,7.418-3.294
	c8.317-9.201,20.193-14.477,32.582-14.477c13.169,0,25.529,5.838,33.914,16.018c1.899,2.307,4.73,3.643,7.719,3.643h2.609
	c0.008,0.001,0.015,0,0.02,0c5.523,0,10-4.477,10-10C355.758,168.203,355.751,167.983,355.736,167.765z"/>
<g>
</g>
<g>
</g>
<g>
</g>
<g>
</g>
<g>
</g>
<g>
</g>
<g>
</g>
<g>
</g>
<g>
</g>
<g>
</g>
<g>
</g>
<g>
</g>
<g>
</g>
<g>
</g>
<g>
</g>
</svg>
