<?xml version="1.0" encoding="UTF-8" standalone="no"?>
<!-- Generator: Adobe Illustrator 16.0.0, SVG Export Plug-In . SVG Version: 6.00 Build 0)  -->

<svg
   xmlns:dc="http://purl.org/dc/elements/1.1/"
   xmlns:cc="http://creativecommons.org/ns#"
   xmlns:rdf="http://www.w3.org/1999/02/22-rdf-syntax-ns#"
   xmlns:svg="http://www.w3.org/2000/svg"
   xmlns="http://www.w3.org/2000/svg"
   xmlns:sodipodi="http://sodipodi.sourceforge.net/DTD/sodipodi-0.dtd"
   xmlns:inkscape="http://www.inkscape.org/namespaces/inkscape"
   version="1.1"
   id="Capa_1"
   x="0px"
   y="0px"
   width="544px"
   height="544px"
   viewBox="0 0 544 544"
   style="enable-background:new 0 0 544 544;"
   xml:space="preserve"
   inkscape:version="0.91 r13725"
   sodipodi:docname="volume.svg"
   inkscape:export-filename="c:\Users\Bambi\AppData\Roaming\Kodi\addons\skin.alaskab\media\dialogs\top-right-volume-fg.png"
   inkscape:export-xdpi="7.6100001"
   inkscape:export-ydpi="7.6100001"><metadata
     id="metadata41"><rdf:RDF><cc:Work
         rdf:about=""><dc:format>image/svg+xml</dc:format><dc:type
           rdf:resource="http://purl.org/dc/dcmitype/StillImage" /></cc:Work></rdf:RDF></metadata><defs
     id="defs39" /><sodipodi:namedview
     pagecolor="#ffffff"
     bordercolor="#666666"
     borderopacity="1"
     objecttolerance="10"
     gridtolerance="10"
     guidetolerance="10"
     inkscape:pageopacity="0"
     inkscape:pageshadow="2"
     inkscape:window-width="1680"
     inkscape:window-height="988"
     id="namedview37"
     showgrid="false"
     inkscape:zoom="0.43382353"
     inkscape:cx="-422.98305"
     inkscape:cy="272"
     inkscape:window-x="-8"
     inkscape:window-y="-8"
     inkscape:window-maximized="1"
     inkscape:current-layer="Capa_1" /><g
     id="g3"><path
       d="M445.02,477.019c-6.143,0-12.283-2.342-16.971-7.027c-9.371-9.373-9.371-24.568,0-33.941   C471.867,392.23,496,333.972,496,272.001c0-61.969-24.133-120.229-67.951-164.049c-9.371-9.373-9.371-24.569,0-33.941   c9.373-9.372,24.568-9.372,33.941,0c52.885,52.886,82.01,123.2,82.01,197.991c0,74.791-29.125,145.104-82.01,197.99   C457.305,474.677,451.162,477.019,445.02,477.019z M359.766,431.765c-6.145,0-12.283-2.344-16.971-7.028   c-9.373-9.372-9.373-24.567,0-33.94c65.502-65.504,65.502-172.085,0-237.588c-9.373-9.373-9.373-24.569,0-33.941   c9.371-9.371,24.568-9.372,33.939,0C417.531,160.062,440,214.304,440,272s-22.469,111.938-63.266,152.735   C372.049,429.421,365.906,431.765,359.766,431.765z M274.51,386.509c-6.143,0-12.284-2.342-16.971-7.028   c-9.373-9.373-9.373-24.567,0-33.94c40.551-40.549,40.551-106.528,0-147.078c-9.373-9.373-9.373-24.569,0-33.941   s24.568-9.372,33.941,0c59.264,59.265,59.264,155.696,0,214.961C286.794,384.167,280.652,386.509,274.51,386.509z M200.666,55.334   C213.5,42.5,224,46.85,224,65v414c0,18.15-10.5,22.5-23.334,9.666L80,368H0V176h80L200.666,55.334z"
       id="path5" /></g><g
     id="g7" /><g
     id="g9" /><g
     id="g11" /><g
     id="g13" /><g
     id="g15" /><g
     id="g17" /><g
     id="g19" /><g
     id="g21" /><g
     id="g23" /><g
     id="g25" /><g
     id="g27" /><g
     id="g29" /><g
     id="g31" /><g
     id="g33" /><g
     id="g35" /></svg>