<?xml version="1.0" encoding="iso-8859-1"?>
<!-- Generator: Adobe Illustrator 18.1.1, SVG Export Plug-In . SVG Version: 6.00 Build 0)  -->
<svg version="1.1" id="Capa_1" xmlns="http://www.w3.org/2000/svg" xmlns:xlink="http://www.w3.org/1999/xlink" x="0px" y="0px"
	 viewBox="0 0 30.724 30.724" style="enable-background:new 0 0 30.724 30.724;" xml:space="preserve">
<g>
	<path d="M30.718,26.475l0.004-19.877c0-0.613-0.498-1.107-1.109-1.107H15.599c-0.436-0.012-0.773-0.807-0.773-1.111V4.253
		c0-0.65-0.529-1.18-1.178-1.18H6.187c-0.652,0-1.179,0.529-1.179,1.18V4.38c0,0.309-0.341,1.113-0.783,1.113h0.009
		C3.632,5.505,3.145,5.997,3.145,6.6l0.002,5.754H0.764c0,0-1.056-0.055-0.685,1.199l2.515,12.922c0,0.65,0.455,1.176,1.104,1.176
		h26.475C30.824,27.651,30.718,26.475,30.718,26.475z M25.944,18.68c-2.557,2.355-4.562,5.6-5.168,7.152
		c-0.017,0.049-0.06,0.082-0.106,0.092c-0.012,0.004-0.021,0.004-0.03,0.004c-0.042,0-0.079-0.016-0.106-0.045l-3.766-3.828
		c-0.029-0.029,1.107-1.039,1.162-0.998l2.064,1.619c0.806-0.947,2.789-3.078,5.539-4.764c0.039-0.023,0.447,0.602,0.447,0.602
		C26.004,18.571,25.989,18.639,25.944,18.68z M29.358,14.02l-0.011,12.975l-2.504-13.91c-0.211-0.764-1.074-0.711-1.074-0.711H4.51
		V7.962h24.848V14.02z"/>
	<g>
	</g>
	<g>
	</g>
	<g>
	</g>
	<g>
	</g>
	<g>
	</g>
	<g>
	</g>
	<g>
	</g>
	<g>
	</g>
	<g>
	</g>
	<g>
	</g>
	<g>
	</g>
	<g>
	</g>
	<g>
	</g>
	<g>
	</g>
	<g>
	</g>
</g>
<g>
</g>
<g>
</g>
<g>
</g>
<g>
</g>
<g>
</g>
<g>
</g>
<g>
</g>
<g>
</g>
<g>
</g>
<g>
</g>
<g>
</g>
<g>
</g>
<g>
</g>
<g>
</g>
<g>
</g>
</svg>
