<?xml version="1.0" encoding="iso-8859-1"?>
<!-- Generator: Adobe Illustrator 16.0.0, SVG Export Plug-In . SVG Version: 6.00 Build 0)  -->
<!DOCTYPE svg PUBLIC "-//W3C//DTD SVG 1.1//EN" "http://www.w3.org/Graphics/SVG/1.1/DTD/svg11.dtd">
<svg version="1.1" id="Capa_1" xmlns="http://www.w3.org/2000/svg" xmlns:xlink="http://www.w3.org/1999/xlink" x="0px" y="0px"
	 width="45px" height="45px" viewBox="0 0 45 45" style="enable-background:new 0 0 45 45;" xml:space="preserve">
<g>
	<path d="M42.5,0h-40C1.119,0,0,1.119,0,2.5v40C0,43.881,1.119,45,2.5,45h40c1.381,0,2.5-1.119,2.5-2.5v-40
		C45,1.119,43.881,0,42.5,0z M2.5,42.5V4.927c0,1.381,1.119,2.5,2.5,2.5h7.499c1.381,0,2.5-1.119,2.5-2.5H42.5V42.5H2.5z M40,17.5
		v20c0,1.381-1.119,2.5-2.5,2.5h-30C6.119,40,5,38.881,5,37.5v-20C5,16.119,6.119,15,7.5,15h17.507c0-0.021-0.006-0.041-0.006-0.063
		c0-1.381,1.119-2.5,2.5-2.5H35c1.381,0,2.5,1.119,2.5,2.5c0,0.021-0.006,0.041-0.006,0.063H37.5C38.881,15,40,16.119,40,17.5z"/>
</g>
<g>
</g>
<g>
</g>
<g>
</g>
<g>
</g>
<g>
</g>
<g>
</g>
<g>
</g>
<g>
</g>
<g>
</g>
<g>
</g>
<g>
</g>
<g>
</g>
<g>
</g>
<g>
</g>
<g>
</g>
</svg>
