<?xml version="1.0" encoding="UTF-8" standalone="no"?>
<!-- Generator: Adobe Illustrator 16.0.0, SVG Export Plug-In . SVG Version: 6.00 Build 0)  -->

<svg
   xmlns:dc="http://purl.org/dc/elements/1.1/"
   xmlns:cc="http://creativecommons.org/ns#"
   xmlns:rdf="http://www.w3.org/1999/02/22-rdf-syntax-ns#"
   xmlns:svg="http://www.w3.org/2000/svg"
   xmlns="http://www.w3.org/2000/svg"
   xmlns:sodipodi="http://sodipodi.sourceforge.net/DTD/sodipodi-0.dtd"
   xmlns:inkscape="http://www.inkscape.org/namespaces/inkscape"
   version="1.1"
   id="Capa_1"
   x="0px"
   y="0px"
   width="45px"
   height="45px"
   viewBox="0 0 45 45"
   style="enable-background:new 0 0 45 45;"
   xml:space="preserve"
   inkscape:version="0.91 r13725"
   sodipodi:docname="folder232-1.svg"
   inkscape:export-filename="C:\Users\Bambi\AppData\Roaming\Kodi\addons\skin.alaskab\media\defaultfolder.png"
   inkscape:export-xdpi="1016.01"
   inkscape:export-ydpi="1016.01"><metadata
     id="metadata41"><rdf:RDF><cc:Work
         rdf:about=""><dc:format>image/svg+xml</dc:format><dc:type
           rdf:resource="http://purl.org/dc/dcmitype/StillImage" /></cc:Work></rdf:RDF></metadata><defs
     id="defs39" /><sodipodi:namedview
     pagecolor="#ffffff"
     bordercolor="#666666"
     borderopacity="1"
     objecttolerance="10"
     gridtolerance="10"
     guidetolerance="10"
     inkscape:pageopacity="0"
     inkscape:pageshadow="2"
     inkscape:window-width="1680"
     inkscape:window-height="988"
     id="namedview37"
     showgrid="false"
     inkscape:zoom="5.2444444"
     inkscape:cx="-6.0063559"
     inkscape:cy="22.5"
     inkscape:window-x="-8"
     inkscape:window-y="-8"
     inkscape:window-maximized="1"
     inkscape:current-layer="Capa_1" /><g
     id="g3"><path
       d="M44.45,13.436c-0.474-0.591-1.192-0.936-1.95-0.936H40c0-1.381-1.119-2.5-2.5-2.5H35V7.5C35,6.119,33.881,5,32.5,5h-30   C1.119,5,0,6.119,0,7.5v30C0,38.881,1.119,40,2.5,40h5h25h5c1.172,0,2.188-0.814,2.439-1.958l5-22.5   C45.105,14.802,44.925,14.027,44.45,13.436z M2.5,7.5h30V10H30c-1.381,0-2.5,1.119-2.5,2.5h-15c-1.172,0-2.186,0.814-2.44,1.958   c0,0-5.058,22.862-5.058,23.042H2.5V7.5L2.5,7.5z"
       id="path5" /></g><g
     id="g7" /><g
     id="g9" /><g
     id="g11" /><g
     id="g13" /><g
     id="g15" /><g
     id="g17" /><g
     id="g19" /><g
     id="g21" /><g
     id="g23" /><g
     id="g25" /><g
     id="g27" /><g
     id="g29" /><g
     id="g31" /><g
     id="g33" /><g
     id="g35" /></svg>