<?xml version="1.0" encoding="iso-8859-1"?>
<!-- Generator: Adobe Illustrator 18.1.1, SVG Export Plug-In . SVG Version: 6.00 Build 0)  -->
<svg version="1.1" id="Capa_1" xmlns="http://www.w3.org/2000/svg" xmlns:xlink="http://www.w3.org/1999/xlink" x="0px" y="0px"
	 viewBox="0 0 39.138 39.138" style="enable-background:new 0 0 39.138 39.138;" xml:space="preserve">
<g>
	<path style="fill:#030104;" d="M17.148,14.752c-0.517-0.183-0.932-0.475-1.247-0.941c-0.562-0.832-0.386-1.942,0.687-2.581
		c1.265-0.751,2.66-0.744,3.905,0.116c1.217,0.84,1.058,2.479-0.264,3.178c-0.241,0.127-0.5,0.219-0.745,0.291
		C19.06,14.941,17.977,15.046,17.148,14.752z"/>
	<g>
		<path style="fill:#030104;" d="M34.672,28.629c-3.08,0.023-6.162-0.03-9.243-0.04c-1.948-0.006-3.897-0.01-5.845-0.01
			c-0.383,0-0.767,0-1.149,0c-2.482,0-4.964,0.029-7.446,0.037c-2.249,0.008-4.497,0.016-6.746,0.023
			c-1.875,0.004-3.662,1.475-4.034,3.267c-0.19,0.915-0.199,1.881-0.195,2.822c0.011,2.354,2.058,4.4,4.405,4.402
			c10.098,0.011,20.195,0.01,30.293,0.003c1.909-0.002,3.772-1.419,4.203-3.284c0.199-0.861,0.188-1.779,0.208-2.672
			C39.173,30.839,37.237,28.609,34.672,28.629z M30.099,33.838c-0.002-1.202,1.05-2.274,2.263-2.239
			c0.575,0.016,1.168,0.262,1.596,0.682c0.7,0.686,0.674,2.499-0.025,3.169c-0.424,0.407-1.004,0.668-1.577,0.653
			C31.088,36.069,30.102,35.106,30.099,33.838z"/>
		<path style="fill:#030104;" d="M4.205,27.138c10.233,0.009,20.465,0.006,30.699,0.003c0.995,0,1.94,0.199,2.823,0.665
			c0.217,0.115,0.433,0.232,0.663,0.357c0.365,0.199,0.653,0.256,0.647,0.128c-0.005-0.096-0.009-0.165-0.021-0.231
			c-0.189-1.062-0.374-2.123-0.575-3.183c-0.163-0.858-0.35-1.713-0.517-2.571c-0.253-1.302-0.503-2.604-0.742-3.908
			c-0.173-0.943-0.317-1.892-0.495-2.833c-0.33-1.757-0.678-3.51-1.013-5.265c-0.208-1.092-0.411-2.184-0.607-3.277
			c-0.173-0.976-0.322-1.956-0.503-2.931c-0.083-0.448-0.153-0.915-0.337-1.325c-0.84-1.871-2.343-2.754-4.364-2.757
			C23.063,0,16.263,0.011,9.463,0C8.481-0.002,7.555,0.162,6.709,0.673C5.53,1.385,4.825,2.435,4.577,3.779
			C4.37,4.899,4.218,6.03,4.021,7.153C3.858,8.085,3.655,9.009,3.487,9.94c-0.173,0.96-0.306,1.926-0.49,2.883
			c-0.325,1.691-0.685,3.376-1.011,5.067c-0.19,0.991-0.331,1.992-0.517,2.984c-0.4,2.131-0.815,4.26-1.218,6.391
			c-0.036,0.191-0.066,0.384-0.094,0.577c-0.046,0.319-0.046,0.584-0.003,0.594c0.04,0.01,0.063,0.016,0.078,0.008
			c0.085-0.041,0.165-0.093,0.245-0.143C1.621,27.597,2.832,27.137,4.205,27.138z M8.228,11.183c0.423-1.127,1.157-2.15,2.145-3.083
			c1.919-1.815,4.261-2.769,6.854-3.127c0.737-0.102,1.484-0.168,2.228-0.19c1.742-0.052,3.419,0.273,5.072,0.833
			c1.374,0.465,2.613,1.14,3.734,2.04c1.284,1.031,2.265,2.31,2.752,3.885c0.438,1.415,0.424,2.846-0.083,4.288
			c-0.89,2.535-2.748,4.102-5.05,5.236c-1.989,0.981-4.113,1.412-6.139,1.355c-2.556,0.03-4.841-0.457-6.888-1.553
			c-0.974-0.521-2.147-0.611-2.722-0.033c-0.575,0.578-1.364,0.211-1.764-0.819l-2.055-5.296c-0.4-1.03-0.224-1.802,0.393-1.726
			C7.322,13.071,7.84,12.218,8.228,11.183z"/>
		<path style="fill:#030104;" d="M14.561,13.742l-5.396,0.106c-1.104,0.022-1.684,0.877-1.294,1.911l0.846,2.245
			c0.39,1.034,1.383,1.286,2.218,0.563l4.112-3.556C15.884,14.289,15.666,13.721,14.561,13.742z"/>
	</g>
</g>
<g>
</g>
<g>
</g>
<g>
</g>
<g>
</g>
<g>
</g>
<g>
</g>
<g>
</g>
<g>
</g>
<g>
</g>
<g>
</g>
<g>
</g>
<g>
</g>
<g>
</g>
<g>
</g>
<g>
</g>
</svg>
