<?xml version="1.0" encoding="iso-8859-1"?>
<!-- Generator: Adobe Illustrator 16.0.0, SVG Export Plug-In . SVG Version: 6.00 Build 0)  -->
<!DOCTYPE svg PUBLIC "-//W3C//DTD SVG 1.1//EN" "http://www.w3.org/Graphics/SVG/1.1/DTD/svg11.dtd">
<svg version="1.1" id="Capa_1" xmlns="http://www.w3.org/2000/svg" xmlns:xlink="http://www.w3.org/1999/xlink" x="0px" y="0px"
	 width="45px" height="45px" viewBox="0 0 45 45" style="enable-background:new 0 0 45 45;" xml:space="preserve">
<g>
	<path d="M39.268,0.732C38.799,0.263,38.163,0,37.5,0h-30C6.119,0,5,1.119,5,2.5v5v3.749h2.583c0.69,0,1.25,0.56,1.25,1.25
		s-0.56,1.25-1.25,1.25H5v2.5h2.583c0.69,0,1.25,0.56,1.25,1.25s-0.56,1.25-1.25,1.25H5v2.5h2.583c0.69,0,1.25,0.56,1.25,1.25
		c0,0.69-0.56,1.25-1.25,1.25H5v2.5h2.583c0.69,0,1.25,0.56,1.25,1.25s-0.56,1.25-1.25,1.25H5v2.5h2.583c0.69,0,1.25,0.56,1.25,1.25
		s-0.56,1.25-1.25,1.25H5V37.5c0,1.172,0.813,2.188,1.957,2.439l22.5,5C29.639,44.98,29.818,45,30,45
		c0.562,0,1.116-0.189,1.564-0.55c0.59-0.476,0.936-1.192,0.936-1.95V40c1.381,0,2.5-1.119,2.5-2.5V35h2.5
		c1.381,0,2.5-1.119,2.5-2.5v-30C40,1.837,39.736,1.201,39.268,0.732z M37.5,32.5H35V30c0-1.381-1.119-2.5-2.5-2.5v-15
		c0-1.172-0.814-2.187-1.958-2.44l-22.5-5C7.862,5.02,7.681,5,7.5,5V2.5h30V32.5z"/>
</g>
<g>
</g>
<g>
</g>
<g>
</g>
<g>
</g>
<g>
</g>
<g>
</g>
<g>
</g>
<g>
</g>
<g>
</g>
<g>
</g>
<g>
</g>
<g>
</g>
<g>
</g>
<g>
</g>
<g>
</g>
</svg>
