<?xml version="1.0" encoding="iso-8859-1"?>
<!-- Generator: Adobe Illustrator 18.1.1, SVG Export Plug-In . SVG Version: 6.00 Build 0)  -->
<svg version="1.1" id="Capa_1" xmlns="http://www.w3.org/2000/svg" xmlns:xlink="http://www.w3.org/1999/xlink" x="0px" y="0px"
	 viewBox="0 0 26.915 26.915" style="enable-background:new 0 0 26.915 26.915;" xml:space="preserve">
<g>
	<g id="c83_lanscape">
		<path d="M26.368,1.739H0.547C0.242,1.739,0,1.983,0,2.282V24.63c0,0.298,0.242,0.546,0.547,0.546h25.821
			c0.303,0,0.547-0.248,0.547-0.546V2.282C26.915,1.983,26.671,1.739,26.368,1.739z M10.132,6.668c0,1.604-1.299,2.896-2.896,2.896
			c-1.599,0-2.896-1.292-2.896-2.896c0-1.6,1.298-2.896,2.896-2.896C8.833,3.771,10.132,5.068,10.132,6.668z M2.071,18.427v-0.222
			l4.553-5.202l2.562,1.729l2.984-5.118l3.47,2.46l3.131-6.498l6.372,12.613v0.238h-0.041H3.778
			C3.778,18.427,2.071,18.427,2.071,18.427z M25.21,22.747h-5.473v-1.651h5.473V22.747z"/>
	</g>
	<g id="Capa_1_251_">
	</g>
</g>
<g>
</g>
<g>
</g>
<g>
</g>
<g>
</g>
<g>
</g>
<g>
</g>
<g>
</g>
<g>
</g>
<g>
</g>
<g>
</g>
<g>
</g>
<g>
</g>
<g>
</g>
<g>
</g>
<g>
</g>
</svg>
