<?xml version="1.0" encoding="iso-8859-1"?>
<!-- Generator: Adobe Illustrator 18.1.1, SVG Export Plug-In . SVG Version: 6.00 Build 0)  -->
<svg version="1.1" id="Capa_1" xmlns="http://www.w3.org/2000/svg" xmlns:xlink="http://www.w3.org/1999/xlink" x="0px" y="0px"
	 viewBox="0 0 23.303 23.303" style="enable-background:new 0 0 23.303 23.303;" xml:space="preserve">
<g>
	<g>
		<path style="fill:#010002;" d="M11.651,0C6.942,0,3.127,1.378,3.127,3.079v4.507c0,1.701,3.815,3.08,8.524,3.08
			s8.524-1.379,8.524-3.08V3.079C20.177,1.378,16.36,0,11.651,0z M11.651,5.539c-3.763,0-6.813-1.102-6.813-2.46
			c0-1.359,3.051-2.46,6.813-2.46c3.765,0,6.812,1.101,6.812,2.46C18.464,4.438,15.416,5.539,11.651,5.539z"/>
		<path style="fill:#010002;" d="M11.652,11.99c-4.501,0-8.18-1.262-8.496-2.858C3.142,9.206,3.127,9.278,3.127,9.353v4.508
			c0,1.701,3.815,3.08,8.524,3.08s8.524-1.378,8.524-3.08V9.353c0.002-0.075-0.014-0.146-0.027-0.221
			C19.834,10.73,16.153,11.99,11.652,11.99z"/>
		<path style="fill:#010002;" d="M11.652,18.355c-4.501,0-8.18-1.261-8.496-2.858c-0.014,0.072-0.029,0.145-0.029,0.221v4.506
			c0,1.701,3.815,3.079,8.524,3.079s8.524-1.378,8.524-3.079v-4.506c0.002-0.076-0.014-0.149-0.027-0.222
			C19.834,17.094,16.153,18.355,11.652,18.355z"/>
	</g>
</g>
<g>
</g>
<g>
</g>
<g>
</g>
<g>
</g>
<g>
</g>
<g>
</g>
<g>
</g>
<g>
</g>
<g>
</g>
<g>
</g>
<g>
</g>
<g>
</g>
<g>
</g>
<g>
</g>
<g>
</g>
</svg>
