<?xml version="1.0" encoding="iso-8859-1"?>
<!-- Generator: Adobe Illustrator 18.1.1, SVG Export Plug-In . SVG Version: 6.00 Build 0)  -->
<svg version="1.1" id="Capa_1" xmlns="http://www.w3.org/2000/svg" xmlns:xlink="http://www.w3.org/1999/xlink" x="0px" y="0px"
	 viewBox="0 0 37.703 37.703" style="enable-background:new 0 0 37.703 37.703;" xml:space="preserve">
<g>
	<path style="fill:#030104;" d="M15.889,4.957L5.426,12.769c0,0-0.98,0.1-2.102,0.375v11.338c1.121,0.243,2.102,0.355,2.102,0.355
		l10.238,7.596c0,0,1.877,1.573,1.877-0.051c0-1.63,0-25.911,0-27.395C17.541,3.712,15.889,4.957,15.889,4.957z"/>
	<path style="fill:#030104;" d="M0,15.432c0,2.116,0,5.821,0,7.302c0,0.568,0.801,1.009,1.785,1.337V13.632
		C0.801,14.04,0,14.621,0,15.432z"/>
	<path style="fill:#030104;" d="M23.189,10.961c-0.506-0.507-1.326-0.507-1.83,0c-0.51,0.505-0.51,1.329,0,1.831
		c1.664,1.672,2.49,3.84,2.492,6.025c-0.002,2.191-0.828,4.373-2.492,6.036c-0.51,0.505-0.51,1.33,0,1.838
		c0.252,0.255,0.578,0.378,0.916,0.378c0.328,0,0.66-0.123,0.914-0.378c2.17-2.172,3.258-5.03,3.254-7.874
		C26.447,15.974,25.359,13.128,23.189,10.961z"/>
	<path style="fill:#030104;" d="M26.705,6.876c-0.512-0.507-1.332-0.507-1.84,0c-0.5,0.509-0.5,1.33,0,1.838
		c2.803,2.801,4.199,6.45,4.205,10.116c-0.006,3.684-1.396,7.353-4.205,10.166c-0.504,0.506-0.5,1.324,0,1.835
		c0.258,0.249,0.59,0.376,0.922,0.376c0.33,0,0.666-0.127,0.918-0.376c3.309-3.317,4.957-7.665,4.957-12
		C31.662,14.506,30,10.177,26.705,6.876z"/>
	<path style="fill:#030104;" d="M31.008,2.695c-0.504-0.509-1.326-0.509-1.832,0c-0.504,0.505-0.504,1.326,0,1.832
		c3.953,3.957,5.932,9.125,5.932,14.307c0,5.197-1.969,10.378-5.932,14.344c-0.51,0.507-0.504,1.331,0,1.835
		c0.254,0.252,0.582,0.377,0.916,0.377s0.664-0.125,0.916-0.377c4.467-4.468,6.697-10.333,6.695-16.179
		C37.705,12.994,35.461,7.146,31.008,2.695z"/>
</g>
<g>
</g>
<g>
</g>
<g>
</g>
<g>
</g>
<g>
</g>
<g>
</g>
<g>
</g>
<g>
</g>
<g>
</g>
<g>
</g>
<g>
</g>
<g>
</g>
<g>
</g>
<g>
</g>
<g>
</g>
</svg>
