<?xml version="1.0" encoding="iso-8859-1"?>
<!-- Generator: Adobe Illustrator 16.0.0, SVG Export Plug-In . SVG Version: 6.00 Build 0)  -->
<!DOCTYPE svg PUBLIC "-//W3C//DTD SVG 1.1//EN" "http://www.w3.org/Graphics/SVG/1.1/DTD/svg11.dtd">
<svg version="1.1" id="Capa_1" xmlns="http://www.w3.org/2000/svg" xmlns:xlink="http://www.w3.org/1999/xlink" x="0px" y="0px"
	 width="146.936px" height="146.936px" viewBox="0 0 146.936 146.936" style="enable-background:new 0 0 146.936 146.936;"
	 xml:space="preserve">
<g>
	<g>
		<path id="path3546" d="M98.819,21.707c-3.043-1.081-4.962-4.221-4.138-7.339c0.989-3.747,1.646-7.759-1.068-9.513
			c-5.741-3.706-8.706,1.556-10.185,6.759c-0.881,3.104-3.752,5.452-6.976,5.326c-37.376-1.476-65.582,18.53-76.04,45.747
			c-1.155,3.011,0.204,3.9,2.933,2.188c2.543-1.6,5.325-2.941,8.851-3.758C26.588,57.779,40.854,67.246,45,78.464
			c1.119,3.024,1.224,5.695,1.28,5.695c0.051,0,2.035-1.759,4.459-3.88c3.501-3.065,7.035-5.655,12.688-6.815
			c3.16-0.648,5.202,1.913,4.464,5.055c-3.013,12.824-6.024,25.648-9.033,38.477c-1.641,6.479-0.858,14.125-7.873,15.361
			c-6.461,1.136-11.083-2.706-12.1-7.298c-1.252-5.702,0.787-15.596-7.489-13.057c-3.296,1.011-4.623,7.167-3.84,12.097
			c1.217,7.616,3.408,12.831,8.834,16.129c8.285,5.037,21.966,3.828,27.266-2.881c3.871-4.901,3.997-11.896,5.954-19.01
			c3.058-12.505,6.114-25.02,9.177-37.528c0.764-3.132,3.998-5.099,6.697-3.333c4.254,2.785,8.264,7.505,10.337,12.38
			c1.262,2.97,2.126,4.904,2.975,4.001c0.847-0.903,3.395-3.23,5.927-4.868c1.505-0.972,3.102-1.843,4.824-2.522
			c11.727-4.624,25.927,0.793,31.296,7.486c0.956,1.192,1.741,2.5,2.523,3.827c1.291,2.179,2.473,3.942,2.473,4.045
			c0,0.106,0.912-2.293,1.059-5.516c0.381-8.381-2.115-20.915-3.362-25.013C136.855,49.367,120.593,29.448,98.819,21.707"/>
	</g>
</g>
<g>
</g>
<g>
</g>
<g>
</g>
<g>
</g>
<g>
</g>
<g>
</g>
<g>
</g>
<g>
</g>
<g>
</g>
<g>
</g>
<g>
</g>
<g>
</g>
<g>
</g>
<g>
</g>
<g>
</g>
</svg>
