<?xml version="1.0" encoding="iso-8859-1"?>
<!-- Generator: Adobe Illustrator 16.0.0, SVG Export Plug-In . SVG Version: 6.00 Build 0)  -->
<!DOCTYPE svg PUBLIC "-//W3C//DTD SVG 1.1//EN" "http://www.w3.org/Graphics/SVG/1.1/DTD/svg11.dtd">
<svg version="1.1" id="Capa_1" xmlns="http://www.w3.org/2000/svg" xmlns:xlink="http://www.w3.org/1999/xlink" x="0px" y="0px"
	 width="27.083px" height="27.083px" viewBox="0 0 27.083 27.083" style="enable-background:new 0 0 27.083 27.083;"
	 xml:space="preserve">
<g>
	<path style="fill:#333333;" d="M0,6.301v14.481h27.083V6.301H0z M6.674,19.734H4.28L0.984,7.604h2.539l2.573,10.232
		c0,0,1.923-9.5,1.923-9.764c0-0.271-0.264-0.467-0.261-0.468c-0.017,0.003,1.102,0,1.102,0l-2.324,11.5L6.674,19.734z
		 M17.114,19.734H15.07l0.001-4.266l-1.476,0.521h-1.512l0.002,3.744h-2.037v-3.739L9.55,15.993l0.499-0.876V7.604h2.036
		l-0.002,7.447l2.988,0.007l-0.001-7.454h2.043v12.13H17.114L17.114,19.734z M20.3,10.904c0.258,0.313,0.666,0.646,1.215,0.99
		l1.507,0.951c0.954,0.6,1.636,1.161,2.029,1.669c0.4,0.529,0.601,1.157,0.601,1.872c0,0.958-0.286,1.856-0.998,2.499
		c-0.7,0.639-1.67,0.85-2.757,0.85c0,0-3.633,0.009-3.708,0l-0.3-0.81c0,0,4.842,0.261,5.385-0.531
		c0.363-0.522,0.353-0.848,0.353-1.444c0-0.538-0.185-0.99-0.562-1.39c-0.252-0.256-0.804-0.657-1.632-1.186l-1.465-0.934
		c-0.451-0.291-0.815-0.591-1.086-0.89c-0.509-0.58-0.766-1.229-0.766-1.931c0-0.921,0.304-1.698,0.903-2.313
		c0.635-0.649,1.557-0.704,2.446-0.704c0.136,0,4.461,0,4.461,0l-0.329,0.821c0,0-4.09-0.08-4.956,0.441
		c-0.344,0.207-0.708,0.516-0.708,0.975C19.934,10.261,20.053,10.609,20.3,10.904z"/>
</g>
<g>
</g>
<g>
</g>
<g>
</g>
<g>
</g>
<g>
</g>
<g>
</g>
<g>
</g>
<g>
</g>
<g>
</g>
<g>
</g>
<g>
</g>
<g>
</g>
<g>
</g>
<g>
</g>
<g>
</g>
</svg>
